<svg id="Layer_1" enable-background="new 0 0 512.291 512.291" height="512" viewBox="0 0 512.291 512.291" width="512" xmlns="http://www.w3.org/2000/svg"><g fill="#fff"><path d="m99.099 318.817h314.094c54.589 0 99.001-44.412 99.001-99.001 0-41.891-25.949-78.534-64.378-92.783-4.539-70.814-63.594-127.033-135.533-127.033-25.815 0-50.935 7.277-72.642 21.045-16.3 10.338-30.15 23.963-40.707 39.937-12.642-6.789-26.869-10.42-41.372-10.42-23.136 0-44.943 8.953-61.402 25.208-13.572 13.405-22.229 30.507-25.015 49.06-18.286 5.387-34.791 16.028-47.322 30.683-15.3 17.894-23.726 40.73-23.726 64.301 0 54.591 44.412 99.003 99.002 99.003z"/><path d="m453.97 343.341h-218.105c-8.284 0-15 6.716-15 15s6.716 15 15 15h218.105c15.509 0 28.127 11.726 28.127 26.139s-12.618 26.139-28.127 26.139h-42.857c-8.284 0-15 6.716-15 15s6.716 15 15 15h42.857c32.052 0 58.127-25.184 58.127-56.139s-26.075-56.139-58.127-56.139z"/><path d="m300.324 411.256h-285.227c-8.284 0-15 6.716-15 15s6.716 15 15 15h285.227c10.876 0 19.725 9.204 19.725 20.518s-8.849 20.518-19.725 20.518h-34.508c-8.284 0-15 6.716-15 15s6.716 15 15 15h34.508c27.418 0 49.725-22.662 49.725-50.518s-22.307-50.518-49.725-50.518z"/><path d="m15.097 373.341h150.623c8.284 0 15-6.716 15-15s-6.716-15-15-15h-150.623c-8.284 0-15 6.716-15 15s6.716 15 15 15z"/></g></svg>